<svg width="1199" height="899" viewBox="0 0 1199 899" fill="none" xmlns="http://www.w3.org/2000/svg">
<rect width="1199" height="899" rx="171" fill="#663C21"/>
<path d="M799.839 535.369C784.793 524.006 765.039 525.506 752.142 542.662C738.605 560.461 742.469 579.755 756.651 590.475C773.626 603.342 789.737 595.401 797.26 586.833C798.764 585.115 798.114 582.973 796.61 581.682C795.443 580.591 793.682 580.418 792.316 581.254C787.587 584.044 778.14 587.257 769.117 580.397C761.379 574.394 762.244 565.607 765.248 560.033L769.752 562.175C792.321 572.895 802.843 572.681 808.642 564.75C815.52 555.519 811.866 544.371 799.839 535.369ZM796.83 552.949C792.966 558.314 786.093 561.099 771.702 554.882L768.693 553.592C777.04 540.729 788.882 535.364 795.54 540.729C799.839 544.146 799.839 548.66 796.83 552.949ZM707.029 528.52C731.517 532.804 741.615 530.024 745.264 520.804C749.563 510.084 742.909 500.434 728.938 494.865C711.538 488 692.848 494.432 684.9 514.373C676.522 535.165 685.33 552.75 702.085 559.395C721.85 567.112 734.967 555.32 740.11 545.034C740.612 544.136 740.688 543.065 740.315 542.111C739.941 541.153 739.158 540.418 738.181 540.097C736.461 539.454 735.171 539.674 733.882 541.168C728.263 547.563 719.168 549.639 711.323 546.319C702.3 542.672 700.796 533.88 702.085 527.663L707.029 528.52ZM726.379 501.077C731.323 503.219 732.828 507.722 730.888 512.654C728.524 518.652 722.51 523.16 707.044 521.013L703.82 520.584C708.319 505.998 718.416 497.645 726.379 501.077ZM660.836 530.228L667.93 487.995L685.125 490.785C687.699 491.213 689.629 489.923 690.064 486.924C690.499 483.926 689.629 482.207 686.84 481.778L668.15 478.565C663.636 469.559 662.996 463.98 663.851 459.053C664.926 452.408 669.439 448.761 673.948 449.404C678.027 450.046 679.102 452.836 678.462 456.268C678.027 458.41 677.387 460.767 676.952 462.694C675.908 467.631 679.317 471.487 684.69 472.558C690.279 473.629 694.787 470.416 695.647 464.194C697.152 453.045 687.264 445.543 674.163 443.401C662.561 441.468 649.455 443.829 647.09 458.405C646.236 463.556 647.09 469.559 649.455 475.562L638.503 473.629C635.703 473.2 634.408 474.7 633.769 477.489C633.124 480.702 634.414 482.421 637.208 482.844L647.735 484.568L640.857 526.801C639.813 533.661 632.505 534.523 631.834 538.592C631.619 540.092 632.689 541.428 634.414 541.596C644.552 542.565 654.393 544.167 664.491 546.1C666.855 546.528 668.789 545.88 668.999 543.958C669.434 539.46 659.762 537.093 660.836 530.228ZM606.916 456.911C607.341 461.838 611.21 465.275 616.798 464.836C622.597 464.413 625.821 460.552 625.391 454.121C624.746 442.968 613.364 438.041 600.043 438.684C588.226 439.331 576.194 444.477 576.839 459.267C577.054 464.413 579.418 470.201 583.072 475.347L571.911 475.99C569.116 476.204 567.827 477.923 568.042 480.922C568.257 483.921 569.971 485.42 572.771 485.206L583.507 484.568L586.087 527.444C586.517 534.303 579.859 536.879 579.859 540.954C579.859 542.667 581.143 543.524 582.863 543.31C592.96 542.02 603.057 540.954 613.129 540.954C615.708 540.954 617.428 539.669 617.213 537.945C616.568 533.238 606.686 533.237 606.251 526.159L603.886 483.492L621.072 482.421C623.866 482.207 625.371 480.708 625.156 477.489C624.941 474.705 623.651 472.991 620.857 473.205L601.737 474.276C595.509 466.555 594.004 460.981 593.574 456.049C592.95 449.623 596.604 444.676 601.133 444.472C605.432 444.258 606.507 446.828 606.931 450.261C607.131 452.403 606.701 454.769 606.916 456.911ZM521.629 487.781C502.499 493.998 492.192 511.578 498.85 532.167C505.503 552.536 524.628 560.471 543.733 554.045C562.827 547.619 573.159 530.024 566.506 509.66C559.843 489.291 540.969 481.559 521.629 487.781ZM543.113 546.951C532.366 550.384 523.129 534.523 518.19 519.937C513.681 506.437 514.536 497.216 522.054 494.641C532.801 490.999 542.248 507.075 546.977 521.441C551.486 535.16 550.626 544.595 543.113 546.951ZM979.866 534.043C972.128 522.466 960.556 526.113 959.241 523.323C958.811 522.466 959.241 521.395 960.316 520.538L964.83 517.54C967.184 516.035 966.974 514.531 964.61 512.608L950.219 499.741C947.209 496.956 946.135 497.17 944.845 498.022C941.406 500.383 945.06 506.177 939.267 510.247L911.549 529.331C905.751 533.187 900.807 530.83 897.368 533.186C896.749 533.605 896.344 534.278 896.257 535.022C896.175 535.762 896.426 536.501 896.938 537.047C902.311 543.478 907.465 550.124 912.624 557.197C913.483 558.268 914.773 558.483 916.063 557.631C919.492 555.27 917.562 550.124 923.146 546.268L945.71 530.606C951.078 526.959 959.886 525.888 964.185 532.319C966.544 535.752 968.479 540.898 954.512 552.903L936.037 568.764C932.168 572.196 927.875 568.336 924.87 570.269C924.328 570.636 923.949 571.207 923.832 571.85C923.709 572.492 923.852 573.155 924.22 573.696C929.164 581.203 933.458 587.935 938.192 595.865C939.047 597.156 940.551 597.579 941.841 596.722C945.065 594.58 944.42 589.133 948.714 585.263L968.908 567.464C986.954 551.623 984.379 540.908 979.86 534.043H979.866ZM950.863 461.496C956.237 457.421 956.447 449.49 951.718 444.559C946.564 439.204 937.972 438.551 932.409 442.626C926.846 446.701 926.401 454.417 931.984 459.996C936.692 464.709 945.495 465.566 950.868 461.496H950.863ZM931.958 478.219C933.893 476.286 933.673 475.001 931.094 473.287L914.768 462.995C911.119 460.634 910.044 461.282 908.97 462.353C905.96 465.351 910.474 470.288 905.536 475.22L881.257 498.588C876.313 503.52 870.51 499.226 867.506 502.229C866.431 503.3 866.431 504.805 867.721 506.09C874.379 512.735 880.822 519.381 887.705 526.674C888.78 527.745 890.495 527.959 891.569 526.888C894.573 523.879 890.71 518.096 895.653 513.373L931.958 478.219ZM865.356 492.152C862.352 490.01 861.702 488.51 864.312 484.65L880.397 459.777C890.07 444.982 887.491 432.115 872.02 420.538C862.137 413.036 843.872 411.322 838.719 418.61C836.784 421.4 837.859 424.184 839.793 425.903C841.17 427.076 843.104 427.331 844.732 426.551C848.171 424.832 855.479 421.828 863.002 427.402C870.945 433.41 868.581 439.627 864.926 445.41L862.352 449.49C861.487 450.776 861.063 450.776 860.418 450.342C859.133 449.49 856.119 443.697 851.615 440.265C841.298 432.12 826.907 428.688 817.884 440.484C809.716 451.204 812.726 462.995 824.333 472.002C833.78 479.295 841.298 478.005 845.807 476.286C844.307 482.717 846.881 488.725 855.044 495.156C859.988 499.011 864.287 500.511 866.646 497.298C868.156 495.37 867.081 493.442 865.356 492.152ZM851.18 466.427C846.457 472.649 841.083 472.859 836.999 469.855C832.06 466.208 829.691 459.996 836.569 451.204C841.513 444.773 847.531 446.058 851.185 448.843C855.689 452.275 857.408 458.278 851.18 466.427ZM815.95 368.875L783.938 428.688C780.714 434.695 774.061 432.548 771.932 436.195C771.072 437.694 771.507 438.979 773.222 439.841C781.385 443.911 789.977 448.205 798.575 453.351C800.075 454.203 801.579 453.989 802.439 452.489C804.588 448.843 798.79 444.559 802.009 438.342L842.193 363.729C843.478 361.373 842.838 360.297 839.834 359.445L821.139 354.513C817.06 353.442 816.195 354.08 815.341 355.584C813.155 359.226 819.384 362.658 815.945 368.875H815.95ZM717.981 415.397C717.607 416.876 718.457 418.386 719.921 418.829C730.018 421.828 739.68 425.475 749.992 429.549C752.357 430.406 754.291 430.192 755.151 428.478C757.086 424.398 747.203 419.686 749.777 413.041L758.59 390.126L765.039 392.483C778.995 397.629 790.382 391.197 793.821 383.267C796.4 377.478 794.68 373.189 788.662 370.828C783.723 368.9 780.284 369.976 777.49 374.26C774.271 379.192 769.143 387.551 763.314 385.837L760.52 384.981L767.828 365.901C768.902 363.331 768.038 362.469 764.818 362.041L745.688 359.44C741.604 358.797 740.535 359.868 740.1 361.158C738.81 365.014 745.253 367.804 742.464 374.449L729.148 405.753C726.384 412.184 719.271 411.541 717.981 415.397ZM684.26 411.541C705.31 415.397 714.977 401.035 718.846 390.315C719.706 387.959 718.201 386.235 716.052 385.812C714.337 385.383 713.048 385.812 711.973 387.525C709.179 392.029 702.085 399.102 690.704 396.96C681.251 395.242 678.027 386.883 678.242 380.452H683.186C708.104 380.452 717.776 375.097 719.491 365.442C721.42 354.08 713.042 345.935 698.221 343.145C679.531 339.718 662.561 349.581 658.692 370.803C654.613 392.671 666.64 408.328 684.26 411.541ZM696.932 349.791C702.305 350.652 704.665 354.942 703.595 360.082C702.305 366.519 697.362 371.874 681.676 372.95L678.452 373.164C680.176 357.94 688.129 348.291 696.932 349.791ZM575.319 323.036L580.155 401.576C580.268 404.355 582.678 405.891 585.186 405.676C586.911 405.528 588.113 404.82 589.024 402.922C590.457 399.924 592.3 394.864 594.956 391.534C598.247 398.266 606.287 405.442 617.008 404.779C630.739 403.993 648.569 393.38 647.054 367.477C645.565 342.003 629.311 334.312 616.67 334.837C610.017 335.118 605.642 338.52 602.75 341.421C600.478 343.665 599.27 345.649 598.415 345.685C597.771 345.685 597.325 345.297 597.29 344.446L594.987 304.865C594.854 301.652 592.064 301.769 590.585 302.264L572.11 307.986C568.707 308.991 567.694 310.322 567.76 312.035C567.934 316.034 574.802 315.758 575.319 323.036ZM608.369 347.2C620.585 346.261 625.166 363.239 625.964 377.152C626.763 391.06 622.658 395.956 615.591 396.466C604.229 397.368 599.009 380.635 598.252 367.579C597.448 353.452 601.936 347.684 608.369 347.2ZM525.278 414.989C526.783 414.555 527.642 413.27 527.212 411.771C526.138 407.696 518.835 408.558 516.9 401.907L509.807 378.305C507.228 369.517 508.947 361.373 516.255 358.797C520.544 357.298 526.777 357.726 533.221 374.658L542.033 398.037C543.963 403.392 538.809 406.181 539.669 409.18C540.094 410.679 540.959 411.322 543.108 410.899C552.346 408.966 561.297 407.614 570.386 406.395C571.89 406.191 572.755 404.468 572.32 402.963C571.245 399.317 565.232 398.888 562.868 393.528L550.191 363.326C541.844 343.385 530.887 341.88 522.049 344.456C507.658 348.74 506.798 361.179 503.783 362.464C502.709 362.892 502.069 362.464 500.994 361.393C495.411 355.819 488.318 354.748 480.37 357.109C466.194 361.393 465.544 373.393 462.535 374.469C461.895 374.684 460.82 374.469 460.385 372.756L458.456 366.534C457.596 363.963 456.521 363.321 453.727 365.034L437.197 374.888C433.543 377.03 433.543 378.101 433.973 379.575C435.047 383.644 441.711 381.931 443.86 388.576L455.011 424.618C457.161 431.263 453.507 434.695 454.582 438.551C455.011 440.055 456.516 440.698 458.021 440.055C466.398 436.409 474.357 432.441 482.729 429.116C484.433 428.438 485.303 427.397 484.873 425.898C483.829 421.823 476.711 422.685 474.561 416.04L466.184 391.167C463.179 382.16 468.548 372.083 474.561 370.369C481.01 368.441 485.948 370.583 489.172 381.089L497.335 407.89C499.27 414.535 493.251 417.753 494.326 421.823C494.756 423.327 496.266 423.776 497.76 423.327C507.658 420.369 516.158 417.59 525.278 414.989ZM421.731 450.995C427.314 454.417 433.973 454.417 442.785 448.629C447.939 445.201 450.733 441.774 448.584 438.342C447.294 436.404 444.93 436.628 443.21 437.694C439.991 439.836 438.706 439.836 435.907 436.409L417.862 413.041C406.9 398.888 394.228 396.96 377.903 407.466C367.375 414.326 360.287 430.62 365.006 438.342C366.731 441.126 370.165 441.126 372.319 439.627C373.803 438.627 374.627 436.904 374.469 435.124C374.034 431.477 373.604 423.333 381.342 418.396C389.719 413.041 394.443 417.33 398.957 422.69L401.966 426.336C403.041 427.622 403.041 428.264 402.176 428.688C401.316 429.116 394.448 430.406 389.719 433.41C378.762 440.484 370.6 452.703 378.547 465.142C385.856 476.505 398.312 477.79 410.344 469.855C420.436 463.209 421.946 455.702 421.726 450.99L421.731 450.995ZM395.114 451.199C390.6 444.345 393.824 438.979 397.688 436.623C402.632 433.614 408.65 434.048 414.233 442.621C418.532 449.052 417.023 454.198 412.724 456.982C407.55 460.42 401.321 460.634 395.093 451.204L395.114 451.199ZM372.964 480.147L350.405 462.378C331.495 447.588 321.183 452.091 315.384 457.875C305.507 467.738 310.871 477.596 308.511 479.958C307.866 480.605 306.792 480.391 305.937 479.529L277.58 451.632C275.64 449.705 274.141 449.919 272.636 452.489L262.754 468.998C260.604 472.644 261.034 473.71 262.109 474.786C265.118 477.795 270.057 473.073 275.21 477.999L323.332 525.603C328.276 530.534 325.912 536.966 328.921 539.964C329.433 540.495 330.159 540.78 330.901 540.74C331.643 540.699 332.334 540.337 332.785 539.75C338.373 532.886 344.172 526.031 350.83 519.381C351.695 518.524 351.695 517.025 350.62 515.949C347.611 512.95 342.882 515.948 337.943 511.017L318.394 491.943C313.885 487.434 311.086 479.075 316.674 473.501C319.683 470.497 324.197 467.927 338.593 479.29L357.713 494.513C361.797 497.726 358.788 502.658 361.367 505.233C362.442 506.304 363.727 506.304 364.591 505.448C371.239 498.828 378.266 492.601 385.641 486.797C386.715 485.935 386.715 484.221 385.641 483.15C382.841 480.366 377.688 483.793 372.964 480.147ZM301.715 527.184C298.957 525.429 297.058 525.236 295.763 527.27C294.719 528.953 294.995 530.32 296.505 532.447C301.915 540.087 303.02 549.19 298.143 556.856C288.015 572.788 269.228 575.501 245.481 560.431C226.433 548.313 222.938 537.379 229.274 527.444C234.381 519.416 243.296 517.341 254.57 524.496C259.842 527.847 266.05 526.582 269.182 521.666C272.994 515.678 270.256 507.549 262.697 502.755C250.942 495.288 235.471 502.117 223.803 520.462C209.304 543.182 214.954 571.319 241.229 587.991C266.06 603.75 293.255 599.155 308.204 575.69C325.067 549.231 308.793 531.677 301.715 527.184ZM485.278 537.634C483.712 538.832 483.512 540.24 484.183 542.749C486.603 551.801 484.479 560.721 477.248 566.189C462.202 577.587 443.665 573.604 426.629 551.19C412.934 533.187 413.476 521.712 422.862 514.602C430.441 508.87 439.515 510.012 447.611 520.651C451.398 525.638 457.662 526.602 462.299 523.088C467.954 518.804 468.205 510.226 462.78 503.096C454.336 491.999 437.463 493.009 420.155 506.121C398.67 522.395 394.213 550.761 413.072 575.552C430.902 598.987 458.005 604.153 480.17 587.364C505.16 568.427 495.984 546.288 490.907 539.602C488.932 537.022 487.223 536.18 485.278 537.634Z" fill="#FFEBCD"/>
</svg>
