<svg width="1199" height="899" viewBox="0 0 1199 899" fill="none" xmlns="http://www.w3.org/2000/svg">
<rect width="1199" height="899" rx="171" fill="black"/>
<path d="M799.841 530.397C784.795 519.034 765.041 520.533 752.144 537.69C738.607 555.489 742.471 574.782 756.653 585.502C773.628 598.37 789.739 590.429 797.262 581.861C798.766 580.142 798.116 578 796.612 576.71C795.445 575.619 793.684 575.445 792.318 576.282C787.589 579.071 778.142 582.284 769.119 575.425C761.381 569.422 762.246 560.635 765.25 555.06L769.754 557.202C792.323 567.923 802.845 567.708 808.644 559.778C815.522 550.547 811.868 539.398 799.841 530.397ZM796.832 547.977C792.968 553.342 786.095 556.126 771.704 549.909L768.695 548.619C777.042 535.757 788.884 530.392 795.542 535.757C799.841 539.174 799.841 543.687 796.832 547.977ZM707.031 523.548C731.519 527.832 741.617 525.052 745.266 515.831C749.564 505.111 742.911 495.462 728.94 489.893C711.54 483.028 692.85 489.459 684.902 509.4C676.524 530.193 685.332 547.778 702.087 554.423C721.852 562.139 734.969 550.348 740.112 540.061C740.614 539.164 740.69 538.093 740.317 537.139C739.943 536.18 739.16 535.446 738.183 535.125C736.463 534.482 735.173 534.701 733.884 536.196C728.264 542.591 719.17 544.667 711.325 541.347C702.302 537.7 700.798 528.908 702.087 522.691L707.031 523.548ZM726.381 496.104C731.325 498.246 732.83 502.75 730.89 507.681C728.526 513.679 722.512 518.187 707.046 516.04L703.822 515.612C708.321 501.026 718.418 492.672 726.381 496.104ZM660.838 525.256L667.932 483.023L685.127 485.813C687.701 486.241 689.631 484.951 690.066 481.952C690.501 478.953 689.631 477.234 686.842 476.806L668.152 473.593C663.638 464.586 662.998 459.007 663.853 454.08C664.927 447.435 669.441 443.789 673.95 444.431C678.029 445.074 679.104 447.864 678.464 451.296C678.029 453.438 677.389 455.794 676.954 457.722C675.91 462.659 679.319 466.514 684.692 467.585C690.281 468.656 694.789 465.443 695.649 459.221C697.154 448.073 687.266 440.571 674.165 438.429C662.563 436.496 649.457 438.857 647.092 453.433C646.237 458.584 647.092 464.586 649.457 470.589L638.505 468.656C635.705 468.228 634.41 469.727 633.771 472.517C633.126 475.73 634.416 477.449 637.21 477.872L647.737 479.596L640.859 521.829C639.815 528.688 632.507 529.55 631.836 533.62C631.621 535.119 632.691 536.456 634.416 536.624C644.554 537.593 654.395 539.194 664.492 541.127C666.857 541.556 668.791 540.908 669.001 538.985C669.436 534.487 659.764 532.121 660.838 525.256ZM606.918 451.938C607.343 456.865 611.212 460.302 616.8 459.864C622.599 459.441 625.823 455.58 625.393 449.149C624.748 437.995 613.366 433.068 600.045 433.711C588.228 434.359 576.196 439.505 576.841 454.295C577.056 459.441 579.42 465.229 583.074 470.375L571.913 471.018C569.118 471.232 567.829 472.95 568.044 475.949C568.259 478.948 569.973 480.447 572.772 480.233L583.509 479.596L586.089 522.471C586.519 529.331 579.861 531.906 579.861 535.981C579.861 537.695 581.145 538.552 582.865 538.338C592.962 537.047 603.059 535.981 613.131 535.981C615.71 535.981 617.43 534.696 617.215 532.972C616.57 528.265 606.688 528.265 606.253 521.186L603.888 478.52L621.074 477.449C623.868 477.234 625.372 475.735 625.158 472.517C624.943 469.732 623.653 468.019 620.859 468.233L601.739 469.304C595.511 461.583 594.006 456.008 593.576 451.077C592.952 444.651 596.606 439.704 601.135 439.5C605.434 439.285 606.509 441.856 606.933 445.288C607.133 447.43 606.703 449.796 606.918 451.938ZM521.631 482.809C502.501 489.026 492.194 506.605 498.852 527.194C505.505 547.563 524.63 555.499 543.734 549.073C562.829 542.647 573.161 525.052 566.508 504.688C559.845 484.318 540.971 476.587 521.631 482.809ZM543.115 541.979C532.368 545.411 523.13 529.55 518.192 514.964C513.683 501.465 514.538 492.244 522.056 489.668C532.803 486.027 542.25 502.102 546.979 516.469C551.488 530.188 550.628 539.623 543.115 541.979ZM979.868 529.071C972.13 517.494 960.558 521.14 959.243 518.351C958.813 517.494 959.243 516.423 960.318 515.566L964.832 512.567C967.186 511.063 966.976 509.558 964.612 507.636L950.221 494.768C947.211 491.984 946.137 492.198 944.847 493.05C941.408 495.411 945.062 501.204 939.269 505.274L911.551 524.358C905.753 528.214 900.809 525.858 897.37 528.214C896.75 528.632 896.346 529.305 896.259 530.05C896.177 530.79 896.428 531.529 896.94 532.075C902.313 538.506 907.467 545.151 912.626 552.225C913.485 553.296 914.775 553.51 916.065 552.658C919.494 550.297 917.564 545.151 923.148 541.296L945.712 525.633C951.08 521.987 959.888 520.916 964.187 527.347C966.546 530.779 968.481 535.925 954.514 547.931L936.039 563.792C932.17 567.224 927.876 563.363 924.872 565.296C924.33 565.663 923.951 566.235 923.833 566.877C923.711 567.52 923.854 568.183 924.222 568.723C929.166 576.231 933.46 582.963 938.194 590.893C939.048 592.183 940.553 592.607 941.843 591.75C945.067 589.608 944.422 584.161 948.716 580.29L968.91 562.491C986.956 546.651 984.381 535.935 979.862 529.071H979.868ZM950.865 456.523C956.239 452.448 956.449 444.518 951.72 439.586C946.566 434.231 937.974 433.578 932.411 437.653C926.848 441.728 926.403 449.445 931.986 455.024C936.694 459.736 945.497 460.593 950.87 456.523H950.865ZM931.96 473.246C933.895 471.313 933.675 470.028 931.096 468.315L914.77 458.023C911.121 455.661 910.046 456.309 908.972 457.38C905.962 460.379 910.476 465.316 905.538 470.247L881.259 493.616C876.315 498.547 870.512 494.253 867.508 497.257C866.433 498.328 866.433 499.833 867.723 501.118C874.381 507.763 880.824 514.408 887.707 521.701C888.782 522.772 890.497 522.987 891.571 521.916C894.575 518.907 890.712 513.123 895.655 508.401L931.96 473.246ZM865.358 487.179C862.354 485.037 861.704 483.538 864.314 479.677L880.399 454.805C890.072 440.01 887.492 427.142 872.022 415.565C862.139 408.063 843.874 406.35 838.72 413.637C836.786 416.427 837.861 419.212 839.795 420.93C841.172 422.103 843.106 422.358 844.734 421.578C848.173 419.859 855.481 416.856 863.004 422.43C870.947 428.438 868.582 434.655 864.928 440.438L862.354 444.518C861.489 445.803 861.064 445.803 860.42 445.37C859.135 444.518 856.121 438.724 851.617 435.292C841.3 427.147 826.909 423.715 817.886 435.511C809.718 446.232 812.728 458.023 824.335 467.029C833.782 474.322 841.3 473.032 845.809 471.313C844.309 477.744 846.883 483.752 855.046 490.183C859.99 494.039 864.289 495.538 866.648 492.325C868.158 490.398 867.083 488.47 865.358 487.179ZM851.182 461.455C846.458 467.677 841.085 467.886 837.001 464.882C832.062 461.236 829.693 455.024 836.571 446.232C841.515 439.8 847.533 441.086 851.187 443.87C855.691 447.303 857.41 453.305 851.182 461.455ZM815.952 363.902L783.94 423.715C780.716 429.723 774.063 427.576 771.934 431.222C771.074 432.722 771.509 434.007 773.224 434.869C781.387 438.939 789.979 443.233 798.577 448.379C800.076 449.23 801.581 449.016 802.441 447.517C804.59 443.87 798.792 439.586 802.011 433.369L842.195 358.756C843.48 356.4 842.84 355.324 839.836 354.472L821.141 349.541C817.062 348.47 816.197 349.107 815.343 350.612C813.157 354.253 819.386 357.685 815.947 363.902H815.952ZM717.983 410.424C717.609 411.903 718.459 413.413 719.923 413.857C730.02 416.856 739.682 420.502 749.994 424.577C752.359 425.434 754.293 425.22 755.153 423.506C757.088 419.426 747.205 414.714 749.779 408.068L758.592 385.154L765.04 387.51C778.997 392.656 790.384 386.225 793.823 378.294C796.402 372.506 794.682 368.217 788.664 365.856C783.725 363.928 780.286 365.004 777.492 369.288C774.273 374.22 769.145 382.578 763.316 380.865L760.522 380.008L767.83 360.929C768.904 358.359 768.039 357.497 764.82 357.068L745.69 354.467C741.606 353.825 740.537 354.896 740.102 356.186C738.812 360.042 745.255 362.831 742.466 369.477L729.15 400.78C726.386 407.211 719.273 406.569 717.983 410.424ZM684.262 406.569C705.311 410.424 714.979 396.063 718.848 385.343C719.708 382.986 718.203 381.263 716.054 380.839C714.339 380.411 713.049 380.839 711.975 382.553C709.18 387.056 702.087 394.13 690.705 391.988C681.253 390.269 678.029 381.91 678.244 375.479H683.188C708.106 375.479 717.778 370.124 719.493 360.47C721.422 349.107 713.044 340.962 698.223 338.173C679.533 334.746 662.563 344.609 658.694 365.83C654.615 387.699 666.642 403.356 684.262 406.569ZM696.934 344.818C702.307 345.68 704.667 349.969 703.597 355.11C702.307 361.546 697.364 366.901 681.678 367.977L678.454 368.191C680.178 352.968 688.131 343.319 696.934 344.818ZM575.321 318.063L580.157 396.603C580.27 399.383 582.68 400.918 585.188 400.704C586.913 400.556 588.115 399.847 589.026 397.95C590.459 394.951 592.302 389.892 594.958 386.562C598.249 393.294 606.288 400.469 617.01 399.806C630.741 399.021 648.571 388.408 647.056 362.505C645.567 337.03 629.313 329.34 616.672 329.865C610.019 330.145 605.644 333.547 602.752 336.449C600.48 338.693 599.272 340.677 598.417 340.713C597.773 340.713 597.327 340.325 597.292 339.473L594.989 299.892C594.855 296.679 592.066 296.796 590.587 297.291L572.112 303.013C568.709 304.018 567.696 305.349 567.762 307.063C567.936 311.061 574.804 310.786 575.321 318.063ZM608.371 342.227C620.587 341.289 625.168 358.267 625.966 372.18C626.765 386.087 622.66 390.983 615.593 391.493C604.231 392.396 599.011 375.663 598.254 362.607C597.45 348.48 601.938 342.712 608.371 342.227ZM525.28 410.016C526.785 409.583 527.644 408.298 527.214 406.798C526.14 402.723 518.837 403.585 516.902 396.935L509.809 373.332C507.23 364.545 508.949 356.4 516.257 353.825C520.546 352.325 526.779 352.754 533.223 369.686L542.035 393.064C543.965 398.419 538.811 401.209 539.671 404.208C540.096 405.707 540.961 406.35 543.11 405.926C552.348 403.993 561.299 402.642 570.388 401.423C571.892 401.219 572.757 399.495 572.322 397.991C571.247 394.344 565.234 393.916 562.87 388.556L550.193 358.353C541.846 338.412 530.889 336.908 522.051 339.483C507.66 343.767 506.8 356.206 503.785 357.492C502.711 357.92 502.071 357.492 500.996 356.421C495.413 350.846 488.32 349.775 480.372 352.137C466.196 356.421 465.546 368.421 462.537 369.497C461.897 369.711 460.822 369.497 460.387 367.783L458.458 361.561C457.598 358.991 456.523 358.348 453.729 360.062L437.199 369.915C433.545 372.057 433.545 373.128 433.974 374.602C435.049 378.672 441.712 376.958 443.862 383.604L455.013 419.645C457.163 426.291 453.509 429.723 454.584 433.578C455.013 435.083 456.518 435.726 458.023 435.083C466.4 431.436 474.358 427.469 482.731 424.143C484.435 423.465 485.305 422.425 484.875 420.925C483.831 416.85 476.713 417.712 474.563 411.067L466.185 386.194C463.181 377.188 468.55 367.11 474.563 365.397C481.012 363.469 485.95 365.611 489.174 376.117L497.337 402.917C499.272 409.563 493.253 412.781 494.328 416.85C494.758 418.355 496.267 418.804 497.762 418.355C507.66 415.397 516.16 412.617 525.28 410.016ZM421.733 446.022C427.316 449.445 433.974 449.445 442.787 443.656C447.941 440.229 450.735 436.802 448.586 433.369C447.296 431.431 444.932 431.656 443.212 432.722C439.993 434.864 438.708 434.864 435.909 431.436L417.864 408.068C406.902 393.916 394.23 391.988 377.905 402.494C367.377 409.353 360.289 425.648 365.008 433.369C366.733 436.154 370.167 436.154 372.321 434.655C373.805 433.655 374.629 431.931 374.471 430.151C374.036 426.505 373.606 418.36 381.344 413.423C389.721 408.068 394.445 412.357 398.959 417.717L401.968 421.364C403.043 422.649 403.043 423.292 402.178 423.715C401.318 424.143 394.45 425.434 389.721 428.438C378.764 435.511 370.602 447.731 378.549 460.17C385.858 471.533 398.314 472.818 410.346 464.882C420.438 458.237 421.948 450.73 421.728 446.017L421.733 446.022ZM395.116 446.226C390.602 439.372 393.826 434.007 397.69 431.651C402.633 428.642 408.652 429.075 414.235 437.648C418.534 444.079 417.025 449.225 412.726 452.01C407.552 455.447 401.323 455.661 395.095 446.232L395.116 446.226ZM372.966 475.174L350.407 457.406C331.497 442.616 321.185 447.119 315.386 452.902C305.509 462.766 310.873 472.624 308.513 474.985C307.868 475.633 306.794 475.419 305.939 474.557L277.582 446.66C275.642 444.732 274.143 444.946 272.638 447.517L262.756 464.025C260.606 467.672 261.036 468.738 262.111 469.814C265.12 472.823 270.059 468.1 275.212 473.027L323.334 520.63C328.278 525.562 325.914 531.993 328.923 534.992C329.435 535.522 330.161 535.808 330.903 535.767C331.645 535.726 332.336 535.364 332.787 534.778C338.375 527.913 344.174 521.059 350.832 514.408C351.697 513.552 351.697 512.052 350.622 510.976C347.613 507.977 342.884 510.976 337.945 506.044L318.396 486.97C313.887 482.462 311.088 474.103 316.676 468.529C319.685 465.525 324.199 462.954 338.595 474.317L357.715 489.541C361.799 492.754 358.79 497.685 361.369 500.261C362.444 501.332 363.728 501.332 364.593 500.475C371.241 493.855 378.268 487.628 385.643 481.824C386.717 480.963 386.717 479.249 385.643 478.178C382.843 475.393 377.69 478.821 372.966 475.174ZM301.717 522.211C298.958 520.457 297.06 520.263 295.765 522.298C294.721 523.981 294.997 525.348 296.507 527.475C301.917 535.114 303.022 544.218 298.145 551.883C288.017 567.816 269.23 570.529 245.483 555.458C226.435 543.341 222.94 532.406 229.275 522.471C234.383 514.444 243.298 512.368 254.572 519.524C259.844 522.874 266.051 521.61 269.184 516.693C272.996 510.706 270.258 502.576 262.699 497.782C250.944 490.316 235.473 497.145 223.805 515.49C209.306 538.21 214.956 566.347 241.23 583.019C266.062 598.778 293.257 594.183 308.206 570.717C325.069 544.259 308.795 526.704 301.717 522.211ZM485.28 532.661C483.714 533.86 483.514 535.267 484.185 537.777C486.605 546.829 484.481 555.749 477.25 561.216C462.204 572.615 443.667 568.632 426.631 546.217C412.935 528.214 413.478 516.739 422.864 509.63C430.443 503.897 439.517 505.04 447.613 515.678C451.4 520.666 457.664 521.63 462.301 518.116C467.956 513.832 468.207 505.254 462.782 498.124C454.338 487.026 437.465 488.036 420.157 501.148C398.672 517.422 394.215 545.789 413.074 570.58C430.904 594.014 458.007 599.181 480.172 582.391C505.162 563.455 495.986 541.316 490.909 534.63C488.934 532.049 487.224 531.208 485.28 532.661Z" fill="white"/>
</svg>
