<svg width="768" height="306" viewBox="0 0 768 306" fill="none" xmlns="http://www.w3.org/2000/svg">
<path d="M583.841 233.397C568.795 222.034 549.041 223.533 536.144 240.69C522.607 258.489 526.471 277.782 540.653 288.502C557.628 301.37 573.739 293.429 581.262 284.861C582.766 283.142 582.116 281 580.612 279.71C579.445 278.619 577.684 278.445 576.318 279.282C571.589 282.071 562.142 285.284 553.119 278.425C545.381 272.422 546.246 263.635 549.25 258.06L553.754 260.202C576.323 270.923 586.845 270.708 592.644 262.778C599.522 253.547 595.868 242.398 583.841 233.397ZM580.832 250.977C576.968 256.342 570.095 259.126 555.704 252.909L552.695 251.619C561.042 238.757 572.884 233.392 579.542 238.757C583.841 242.174 583.841 246.687 580.832 250.977ZM491.031 226.548C515.519 230.832 525.617 228.052 529.266 218.831C533.564 208.111 526.911 198.462 512.94 192.893C495.54 186.028 476.85 192.459 468.902 212.4C460.524 233.193 469.332 250.778 486.087 257.423C505.852 265.139 518.969 253.348 524.112 243.061C524.614 242.164 524.69 241.093 524.317 240.139C523.943 239.18 523.16 238.446 522.183 238.125C520.463 237.482 519.173 237.701 517.884 239.196C512.264 245.591 503.17 247.667 495.325 244.347C486.302 240.7 484.798 231.908 486.087 225.691L491.031 226.548ZM510.381 199.104C515.325 201.246 516.83 205.75 514.89 210.681C512.526 216.679 506.512 221.187 491.046 219.04L487.822 218.612C492.321 204.026 502.418 195.672 510.381 199.104ZM444.838 228.256L451.932 186.023L469.127 188.813C471.701 189.241 473.631 187.951 474.066 184.952C474.501 181.953 473.631 180.234 470.842 179.806L452.152 176.593C447.638 167.586 446.998 162.007 447.853 157.08C448.927 150.435 453.441 146.789 457.95 147.431C462.029 148.074 463.104 150.864 462.464 154.296C462.029 156.438 461.389 158.794 460.954 160.722C459.91 165.659 463.319 169.514 468.692 170.585C474.281 171.656 478.789 168.443 479.649 162.221C481.154 151.073 471.266 143.571 458.165 141.429C446.563 139.496 433.457 141.857 431.092 156.433C430.237 161.584 431.092 167.586 433.457 173.589L422.505 171.656C419.705 171.228 418.41 172.727 417.771 175.517C417.126 178.73 418.416 180.449 421.21 180.872L431.737 182.596L424.859 224.829C423.815 231.688 416.507 232.55 415.836 236.62C415.621 238.119 416.691 239.456 418.416 239.624C428.554 240.593 438.395 242.194 448.492 244.127C450.857 244.556 452.791 243.908 453.001 241.985C453.436 237.487 443.764 235.121 444.838 228.256ZM390.918 154.938C391.343 159.865 395.212 163.302 400.8 162.864C406.599 162.441 409.823 158.58 409.393 152.149C408.748 140.995 397.366 136.068 384.045 136.711C372.228 137.359 360.196 142.505 360.841 157.295C361.056 162.441 363.42 168.229 367.074 173.375L355.913 174.018C353.118 174.232 351.829 175.95 352.044 178.949C352.259 181.948 353.973 183.447 356.772 183.233L367.509 182.596L370.089 225.471C370.519 232.331 363.861 234.906 363.861 238.981C363.861 240.695 365.145 241.552 366.865 241.338C376.962 240.047 387.059 238.981 397.131 238.981C399.71 238.981 401.43 237.696 401.215 235.972C400.57 231.265 390.688 231.265 390.253 224.186L387.888 181.52L405.074 180.449C407.868 180.234 409.372 178.735 409.158 175.517C408.943 172.732 407.653 171.019 404.859 171.233L385.739 172.304C379.511 164.583 378.006 159.008 377.576 154.077C376.952 147.651 380.606 142.704 385.135 142.5C389.434 142.285 390.509 144.856 390.933 148.288C391.133 150.43 390.703 152.796 390.918 154.938ZM305.631 185.809C286.501 192.026 276.194 209.605 282.852 230.194C289.505 250.563 308.63 258.499 327.734 252.073C346.829 245.647 357.161 228.052 350.508 207.688C343.845 187.318 324.971 179.587 305.631 185.809ZM327.115 244.979C316.368 248.411 307.13 232.55 302.192 217.964C297.683 204.465 298.538 195.244 306.056 192.668C316.803 189.027 326.25 205.102 330.979 219.469C335.488 233.188 334.628 242.623 327.115 244.979ZM763.868 232.071C756.13 220.494 744.558 224.14 743.243 221.351C742.813 220.494 743.243 219.423 744.318 218.566L748.832 215.567C751.186 214.063 750.976 212.558 748.612 210.636L734.221 197.768C731.211 194.984 730.137 195.198 728.847 196.05C725.408 198.411 729.062 204.204 723.269 208.274L695.551 227.358C689.753 231.214 684.809 228.858 681.37 231.214C680.75 231.632 680.346 232.305 680.259 233.05C680.177 233.79 680.428 234.529 680.94 235.075C686.313 241.506 691.467 248.151 696.626 255.225C697.485 256.296 698.775 256.51 700.065 255.658C703.494 253.297 701.564 248.151 707.148 244.296L729.712 228.633C735.08 224.987 743.888 223.916 748.187 230.347C750.546 233.779 752.481 238.925 738.514 250.931L720.039 266.792C716.17 270.224 711.876 266.363 708.872 268.296C708.33 268.663 707.951 269.235 707.833 269.877C707.711 270.52 707.854 271.183 708.222 271.723C713.166 279.231 717.46 285.963 722.194 293.893C723.048 295.183 724.553 295.607 725.843 294.75C729.067 292.608 728.422 287.161 732.716 283.29L752.91 265.491C770.956 249.651 768.381 238.935 763.862 232.071H763.868ZM734.865 159.523C740.239 155.448 740.449 147.518 735.72 142.586C730.566 137.231 721.974 136.578 716.411 140.653C710.848 144.728 710.403 152.445 715.986 158.024C720.694 162.736 729.497 163.593 734.87 159.523H734.865ZM715.96 176.246C717.895 174.313 717.675 173.028 715.096 171.315L698.77 161.023C695.121 158.661 694.046 159.309 692.972 160.38C689.962 163.379 694.476 168.316 689.538 173.247L665.259 196.616C660.315 201.547 654.512 197.253 651.508 200.257C650.433 201.328 650.433 202.833 651.723 204.118C658.381 210.763 664.824 217.408 671.707 224.701C672.782 225.772 674.497 225.987 675.571 224.916C678.575 221.907 674.712 216.123 679.655 211.401L715.96 176.246ZM649.358 190.179C646.354 188.037 645.704 186.538 648.314 182.677L664.399 157.805C674.072 143.01 671.492 130.142 656.022 118.565C646.139 111.063 627.874 109.35 622.72 116.637C620.786 119.427 621.861 122.212 623.795 123.93C625.172 125.103 627.106 125.358 628.734 124.578C632.173 122.859 639.481 119.856 647.004 125.43C654.947 131.438 652.582 137.655 648.928 143.438L646.354 147.518C645.489 148.803 645.064 148.803 644.42 148.37C643.135 147.518 640.121 141.724 635.617 138.292C625.3 130.147 610.909 126.715 601.886 138.511C593.718 149.232 596.728 161.023 608.335 170.029C617.782 177.322 625.3 176.032 629.809 174.313C628.309 180.744 630.883 186.752 639.046 193.183C643.99 197.039 648.289 198.538 650.648 195.325C652.158 193.398 651.083 191.47 649.358 190.179ZM635.182 164.455C630.458 170.677 625.085 170.886 621.001 167.882C616.062 164.236 613.693 158.024 620.571 149.232C625.515 142.8 631.533 144.086 635.187 146.87C639.691 150.303 641.41 156.305 635.182 164.455ZM599.952 66.9023L567.94 126.715C564.716 132.723 558.063 130.576 555.934 134.222C555.074 135.722 555.509 137.007 557.224 137.869C565.387 141.939 573.979 146.233 582.577 151.379C584.076 152.23 585.581 152.016 586.441 150.517C588.59 146.87 582.792 142.586 586.011 136.369L626.195 61.7564C627.48 59.4002 626.84 58.3241 623.836 57.4724L605.141 52.5407C601.062 51.4697 600.197 52.1072 599.343 53.6117C597.157 57.2531 603.386 60.6854 599.947 66.9023H599.952ZM501.983 113.424C501.609 114.903 502.459 116.413 503.923 116.857C514.02 119.856 523.682 123.502 533.994 127.577C536.359 128.434 538.293 128.22 539.153 126.506C541.088 122.426 531.205 117.714 533.779 111.068L542.592 88.154L549.04 90.5102C562.997 95.6561 574.384 89.225 577.823 81.2945C580.402 75.506 578.682 71.2169 572.664 68.8556C567.725 66.9278 564.286 68.0039 561.492 72.2879C558.273 77.2196 553.145 85.5785 547.316 83.8649L544.522 83.0081L551.83 63.929C552.904 61.3586 552.039 60.4967 548.82 60.0683L529.69 57.4673C525.606 56.8247 524.537 57.8957 524.102 59.186C522.812 63.0416 529.255 65.8313 526.466 72.4766L513.15 103.78C510.386 110.211 503.273 109.569 501.983 113.424ZM468.262 109.569C489.311 113.424 498.979 99.0629 502.848 88.3427C503.708 85.9865 502.203 84.2627 500.054 83.8394C498.339 83.411 497.049 83.8394 495.975 85.553C493.18 90.0563 486.087 97.13 474.705 94.988C465.253 93.2693 462.029 84.9104 462.244 78.4793H467.188C492.106 78.4793 501.778 73.1243 503.493 63.47C505.422 52.1072 497.044 43.9625 482.223 41.1728C463.533 37.7456 446.563 47.609 442.694 68.8301C438.615 90.6989 450.642 106.356 468.262 109.569ZM480.934 47.8181C486.307 48.68 488.667 52.9691 487.597 58.1099C486.307 64.5461 481.364 69.9011 465.678 70.9772L462.454 71.1914C464.178 55.9679 472.131 46.3187 480.934 47.8181ZM359.321 21.0635L364.157 99.6035C364.27 102.383 366.68 103.918 369.188 103.704C370.913 103.556 372.115 102.847 373.026 100.95C374.459 97.9511 376.302 92.8919 378.958 89.5616C382.249 96.2936 390.288 103.469 401.01 102.806C414.741 102.021 432.571 91.4078 431.056 65.5049C429.567 40.0304 413.313 32.3396 400.672 32.8649C394.019 33.1454 389.644 36.5471 386.752 39.449C384.48 41.693 383.272 43.6769 382.417 43.7126C381.773 43.7126 381.327 43.325 381.292 42.4733L378.989 2.8922C378.855 -0.320805 376.066 -0.203505 374.587 0.291195L356.112 6.0134C352.709 7.01809 351.696 8.3492 351.762 10.0628C351.936 14.0612 358.804 13.7858 359.321 21.0635ZM392.371 45.2273C404.587 44.2889 409.168 61.2668 409.966 75.1796C410.765 89.0873 406.66 93.9833 399.593 94.4933C388.231 95.396 383.011 78.6629 382.254 65.6069C381.45 51.4799 385.938 45.7118 392.371 45.2273ZM309.28 113.016C310.785 112.583 311.644 111.298 311.214 109.798C310.14 105.723 302.837 106.585 300.902 99.935L293.809 76.3322C291.23 67.5449 292.949 59.4002 300.257 56.8247C304.546 55.3253 310.779 55.7537 317.223 72.6857L326.035 96.0641C327.965 101.419 322.811 104.209 323.671 107.208C324.096 108.707 324.961 109.35 327.11 108.926C336.348 106.993 345.299 105.642 354.388 104.423C355.892 104.219 356.757 102.495 356.322 100.991C355.247 97.3442 349.234 96.9158 346.87 91.5557L334.193 61.3535C325.846 41.4125 314.889 39.908 306.051 42.4835C291.66 46.7675 290.8 59.2064 287.785 60.4916C286.711 60.92 286.071 60.4916 284.996 59.4206C279.413 53.8463 272.32 52.7753 264.372 55.1366C250.196 59.4206 249.546 71.4209 246.537 72.497C245.897 72.7112 244.822 72.497 244.387 70.7834L242.458 64.5614C241.598 61.991 240.523 61.3484 237.729 63.062L221.199 72.9152C217.545 75.0572 217.545 76.1282 217.974 77.6021C219.049 81.6719 225.712 79.9583 227.862 86.6036L239.013 122.645C241.163 129.291 237.509 132.723 238.584 136.578C239.013 138.083 240.518 138.726 242.023 138.083C250.4 134.436 258.358 130.469 266.731 127.143C268.435 126.465 269.305 125.425 268.875 123.925C267.831 119.85 260.713 120.712 258.563 114.067L250.185 89.1944C247.181 80.1878 252.55 70.1102 258.563 68.3966C265.012 66.4688 269.95 68.6108 273.174 79.1168L281.337 105.917C283.272 112.563 277.253 115.781 278.328 119.85C278.758 121.355 280.267 121.804 281.762 121.355C291.66 118.397 300.16 115.617 309.28 113.016ZM205.733 149.022C211.316 152.445 217.974 152.445 226.787 146.656C231.941 143.229 234.735 139.802 232.586 136.369C231.296 134.431 228.932 134.656 227.212 135.722C223.993 137.864 222.708 137.864 219.909 134.436L201.864 111.068C190.902 96.9158 178.23 94.988 161.905 105.494C151.377 112.353 144.289 128.648 149.008 136.369C150.733 139.154 154.167 139.154 156.321 137.655C157.805 136.655 158.629 134.931 158.471 133.151C158.036 129.505 157.606 121.36 165.344 116.423C173.721 111.068 178.445 115.357 182.959 120.717L185.968 124.364C187.043 125.649 187.043 126.292 186.178 126.715C185.318 127.143 178.45 128.434 173.721 131.438C162.764 138.511 154.602 150.731 162.549 163.17C169.858 174.533 182.314 175.818 194.346 167.882C204.438 161.237 205.948 153.73 205.728 149.017L205.733 149.022ZM179.116 149.226C174.602 142.372 177.826 137.007 181.69 134.651C186.633 131.642 192.652 132.075 198.235 140.648C202.534 147.079 201.025 152.225 196.726 155.01C191.552 158.447 185.323 158.661 179.095 149.232L179.116 149.226ZM156.966 178.174L134.407 160.406C115.497 145.616 105.185 150.119 99.3864 155.902C89.5092 165.766 94.8726 175.624 92.5133 177.985C91.8684 178.633 90.7937 178.419 89.9391 177.557L61.5817 149.66C59.6421 147.732 58.1426 147.946 56.638 150.517L46.7557 167.025C44.6062 170.672 45.0361 171.738 46.1108 172.814C49.12 175.823 54.0587 171.1 59.2122 176.027L107.334 223.63C112.278 228.562 109.914 234.993 112.923 237.992C113.435 238.522 114.161 238.808 114.903 238.767C115.645 238.726 116.336 238.364 116.787 237.778C122.375 230.913 128.174 224.059 134.832 217.408C135.697 216.552 135.697 215.052 134.622 213.976C131.613 210.977 126.884 213.976 121.945 209.044L102.396 189.97C97.8869 185.462 95.0875 177.103 100.676 171.529C103.685 168.525 108.199 165.954 122.595 177.317L141.715 192.541C145.799 195.754 142.79 200.685 145.369 203.261C146.444 204.332 147.728 204.332 148.593 203.475C155.241 196.855 162.268 190.628 169.643 184.824C170.717 183.963 170.717 182.249 169.643 181.178C166.843 178.393 161.69 181.821 156.966 178.174ZM85.7169 225.211C82.9585 223.457 81.0598 223.263 79.765 225.298C78.721 226.981 78.9974 228.348 80.5071 230.475C85.9165 238.114 87.022 247.218 82.1448 254.883C72.0168 270.816 53.2296 273.529 29.4833 258.458C10.4351 246.341 6.93971 235.406 13.2755 225.471C18.383 217.444 27.298 215.368 38.5724 222.524C43.8437 225.874 50.0515 224.61 53.1835 219.693C56.9962 213.706 54.2582 205.576 46.6994 200.782C34.9439 193.316 19.473 200.145 7.8046 218.49C-6.69393 241.21 -1.04395 269.347 25.2305 286.019C50.0617 301.778 77.2573 297.183 92.2062 273.717C109.069 247.259 92.7948 229.704 85.7169 225.211ZM269.28 235.661C267.714 236.86 267.514 238.267 268.185 240.777C270.605 249.829 268.481 258.749 261.25 264.216C246.204 275.615 227.667 271.632 210.631 249.217C196.935 231.214 197.478 219.739 206.864 212.63C214.443 206.897 223.517 208.04 231.613 218.678C235.4 223.666 241.664 224.63 246.301 221.116C251.956 216.832 252.207 208.254 246.782 201.124C238.338 190.026 221.465 191.036 204.157 204.148C182.672 220.422 178.215 248.789 197.074 273.58C214.904 297.014 242.007 302.181 264.172 285.391C289.162 266.455 279.986 244.316 274.909 237.63C272.934 235.049 271.224 234.208 269.28 235.661Z" fill="#FFEBCD"/>
</svg>
