<svg width="540" height="209" viewBox="0 0 540 209" fill="none" xmlns="http://www.w3.org/2000/svg">
<path fill-rule="evenodd" clip-rule="evenodd" d="M216.693 29.0629C222.758 28.8449 227.591 31.1789 231.193 36.0629C236.295 45.3609 240.628 55.0269 244.193 65.0629C246.381 67.2509 248.548 69.4179 250.693 71.5629C250.548 72.3349 250.215 73.0019 249.693 73.5629C242.285 74.4089 234.951 75.5759 227.693 77.0629C227.764 74.2519 228.431 71.5849 229.693 69.0629C226.752 59.3959 222.752 50.2289 217.693 41.5629C208.636 38.9439 204.803 42.4439 206.193 52.0629C208.503 58.6379 210.503 65.3049 212.193 72.0629C214.299 74.0229 216.466 75.8569 218.693 77.5629C218.548 78.3349 218.215 79.0019 217.693 79.5629C210.41 81.7169 203.077 83.5499 195.693 85.0629C196.204 81.8699 196.871 78.7039 197.693 75.5629C196.138 67.8969 193.971 60.3969 191.193 53.0629C189.121 48.4199 185.621 46.9199 180.693 48.5629C176.04 52.3509 174.54 57.1849 176.193 63.0629C178.329 69.8049 180.662 76.4719 183.193 83.0629C185.584 83.9919 187.418 85.4919 188.693 87.5629C188.548 88.3349 188.215 89.0019 187.693 89.5629C181.09 92.3729 174.423 94.8729 167.693 97.0629C167.765 94.3699 168.098 91.7029 168.693 89.0629C166.145 78.8699 162.978 68.8699 159.193 59.0629C157.774 58.1029 156.274 57.2699 154.693 56.5629C153.186 55.7259 152.686 54.5589 153.193 53.0629C157.878 49.5529 162.878 46.5529 168.193 44.0629C168.965 44.2079 169.632 44.5409 170.193 45.0629C171.026 47.0629 171.86 49.0629 172.693 51.0629C175.858 45.7329 180.191 41.5659 185.693 38.5629C190.966 37.2129 195.632 38.2129 199.693 41.5629C200.693 42.2299 201.693 42.2299 202.693 41.5629C205.723 35.3559 210.39 31.1889 216.693 29.0629Z" fill="white"/>
<path d="M261.693 0.0626831C263.337 -0.151306 264.837 0.182728 266.193 1.06268C266.851 11.0796 267.684 21.0797 268.693 31.0627C271.547 28.3747 274.547 25.8747 277.693 23.5627C294.389 23.0907 302.722 31.2578 302.693 48.0627C301.747 65.8397 292.413 73.6737 274.693 71.5627C271.563 69.4347 268.73 66.9347 266.193 64.0627C264.484 66.9806 262.651 69.8147 260.693 72.5627C258.826 73.2737 257.326 72.7737 256.193 71.0627C255.357 51.6897 254.024 32.3556 252.193 13.0627C250.114 11.4857 248.614 9.48565 247.693 7.06268C247.801 6.12076 248.134 5.28764 248.693 4.56268C253.225 3.24069 257.558 1.74068 261.693 0.0626831ZM273.693 32.0627C271.497 33.4167 269.997 35.4168 269.193 38.0627C268.561 43.7766 268.894 49.4437 270.193 55.0627C271.219 59.2846 273.386 62.7847 276.693 65.5627C283.12 67.8007 286.954 65.6347 288.193 59.0627C288.944 53.9907 288.611 48.9906 287.193 44.0627C285.899 36.2608 281.399 32.2607 273.693 32.0627Z" fill="white"/>
<path d="M326.694 29.5627C337.002 27.2259 345.837 29.7258 353.194 37.0627C354.048 41.1876 353.714 45.1878 352.194 49.0627C350.98 50.6116 349.479 51.7777 347.694 52.5627C343.412 53.7197 339.077 54.5527 334.694 55.0627H324.694C324.426 56.6617 324.76 57.9947 325.694 59.0627C327.013 64.5447 330.513 67.2117 336.194 67.0627C341.899 66.7916 346.4 64.2916 349.694 59.5627C350.977 58.8789 352.145 59.0458 353.194 60.0627C352.311 67.4556 348.477 72.7887 341.694 76.0627C337.76 76.9227 333.759 77.2557 329.694 77.0627C319.906 75.4457 313.74 69.7787 311.194 60.0627C308.821 45.9747 313.988 35.8077 326.694 29.5627ZM342.194 43.0627C344.026 35.729 341.193 32.7289 333.694 34.0627C328.397 37.9897 325.73 43.3238 325.694 50.0627C329.88 50.1676 333.881 49.3346 337.694 47.5627C339.86 46.7297 341.361 45.2296 342.194 43.0627Z" fill="white"/>
<path fill-rule="evenodd" clip-rule="evenodd" d="M421.693 37.0629C428.03 38.2289 434.363 39.5629 440.693 41.0629C431.75 59.6139 422.25 77.9479 412.193 96.0629C411.509 98.9429 411.676 101.776 412.693 104.563C412.58 105.843 411.913 106.676 410.693 107.063C403.508 103.976 396.841 100.142 390.693 95.5629C390.838 94.7909 391.171 94.1239 391.693 93.5629C394.389 92.7979 396.889 91.6309 399.193 90.0629C406.605 75.5709 414.272 61.2369 422.193 47.0629C422.365 43.7369 422.198 40.4039 421.693 37.0629Z" fill="white"/>
<path fill-rule="evenodd" clip-rule="evenodd" d="M368.693 41.0629C374.97 41.1119 381.137 41.7789 387.193 43.0629C386.366 48.4139 385.2 53.7469 383.693 59.0629C385.392 59.2229 387.059 59.0569 388.693 58.5629C391.6 55.4119 394.267 52.0789 396.693 48.5629C405.499 47.3629 408.333 50.8629 405.193 59.0629C398.718 65.3639 391.218 66.6979 382.693 63.0629C382.026 63.3959 381.36 63.7299 380.693 64.0629C378.586 69.1039 376.92 74.2709 375.693 79.5629C376.889 83.1209 378.222 86.6209 379.693 90.0629C371.876 88.6269 364.21 86.4599 356.693 83.5629C354.97 83.0399 353.637 82.0399 352.693 80.5629C355 78.3029 357.5 76.1359 360.193 74.0629C363.721 66.4789 367.054 58.8119 370.193 51.0629C370.519 47.5779 370.019 44.2449 368.693 41.0629Z" fill="white"/>
<path d="M120.693 70.0629C129.008 68.308 135.842 70.6419 141.193 77.0629C145.906 83.3198 150.74 89.4869 155.693 95.5629C158.004 95.4079 160.338 95.4079 162.693 95.5629C164.221 98.4438 163.555 100.777 160.693 102.563C158.027 103.896 155.36 105.23 152.693 106.563C150.295 107.274 147.961 107.107 145.693 106.063C141.325 117.07 133.324 122.236 121.693 121.563C108.476 112.159 108.476 102.492 121.693 92.5629C124.243 91.1209 126.91 89.9548 129.693 89.0629C130.714 88.5609 130.881 87.8948 130.193 87.0629C124.516 78.2949 118.515 77.962 112.193 86.0629C111.86 89.3959 111.526 92.7299 111.193 96.0629C108.354 98.9338 106.019 98.5998 104.193 95.0629C102.948 87.1339 105.448 80.6339 111.693 75.5629C114.757 73.7039 117.758 71.8708 120.693 70.0629ZM140.693 104.063C139.226 96.923 134.893 93.589 127.693 94.0629C124.353 97.6149 123.853 101.615 126.193 106.063C132.317 113.147 137.152 112.48 140.693 104.063Z" fill="white"/>
<path fill-rule="evenodd" clip-rule="evenodd" d="M280.693 127.063C278.026 127.063 275.36 127.063 272.693 127.063C272.38 130.605 272.714 133.938 273.693 137.063C273.527 144.404 273.693 151.737 274.193 159.063C276.232 161.437 278.565 163.437 281.193 165.063C281.86 166.063 281.86 167.063 281.193 168.063C272.758 168.921 264.258 169.587 255.693 170.063C255.788 167.205 256.955 164.872 259.193 163.063C259.434 151.73 259.267 140.396 258.693 129.063C255.343 129.228 252.01 129.061 248.693 128.563C247.36 126.563 247.36 124.563 248.693 122.563C251.693 122.23 254.693 121.896 257.693 121.563C249.406 106.304 253.906 97.8039 271.193 96.0629C277.503 96.2739 282.837 98.6069 287.193 103.063C289.477 111.926 286.31 115.592 277.693 114.063C276.86 113.063 276.026 112.063 275.193 111.063C274.981 107.805 274.481 104.639 273.693 101.563C270.359 100.351 267.859 101.184 266.193 104.063C264.673 110.401 266.173 115.901 270.693 120.563C276.276 120.754 281.776 121.254 287.193 122.063C287.913 123.675 287.747 125.175 286.693 126.563C284.72 127.058 282.72 127.225 280.693 127.063Z" fill="white"/>
<path fill-rule="evenodd" clip-rule="evenodd" d="M506.693 97.0629C513.745 96.4039 518.078 99.4039 519.693 106.063C518.204 113.149 513.87 115.649 506.693 113.563C498.842 107.894 498.842 102.394 506.693 97.0629Z" fill="white"/>
<path fill-rule="evenodd" clip-rule="evenodd" d="M311.693 99.0629C318.338 98.5279 324.671 99.6939 330.693 102.563C338.625 107.155 339.625 112.822 333.693 119.563C327.841 121.603 324.508 119.603 323.693 113.563C324.579 110.755 324.746 107.922 324.193 105.063C317.775 103.797 314.608 106.631 314.693 113.563C315.003 117.646 316.003 121.479 317.693 125.063C321.727 125.235 325.727 125.735 329.693 126.563C333.983 127.431 334.649 129.431 331.693 132.563C326.931 133.04 322.264 132.54 317.693 131.063C315.535 142.005 314.035 153.005 313.193 164.063C315.806 165.964 317.473 168.298 318.193 171.063C317.131 171.66 315.965 171.993 314.693 172.063C307.419 170.541 300.086 169.541 292.693 169.063C292.99 165.237 294.823 162.237 298.193 160.063C299.796 149.34 301.629 138.673 303.693 128.063C300.186 128.569 297.019 127.903 294.193 126.063C293.526 124.73 293.526 123.396 294.193 122.063C297.694 121.459 301.194 121.126 304.693 121.063C300.294 111.398 302.627 104.064 311.693 99.0629Z" fill="white"/>
<path d="M441.694 79.0631C454.042 77.9873 463.542 82.6542 470.194 93.0631C471.02 98.1519 470.686 103.152 469.194 108.063C464.361 115.73 459.527 123.396 454.694 131.063C456.082 132.672 457.082 134.505 457.694 136.563C457.46 138.295 456.459 139.129 454.694 139.063C447.451 136.148 443.118 130.815 441.694 123.063C438.286 124.457 434.953 124.291 431.694 122.563C423.831 118.323 419.997 111.823 420.194 103.063C424.696 92.2273 432.196 89.3941 442.694 94.5631C446.864 96.6461 450.198 99.6462 452.694 103.563C453.643 104.18 454.476 104.014 455.194 103.063C461.414 93.8404 459.08 88.1741 448.194 86.0631C445.057 87.064 441.891 87.564 438.694 87.5631C436.896 83.7051 437.896 80.8721 441.694 79.0631ZM439.693 102.063C434.154 105.817 432.654 110.817 435.193 117.063C440.397 120.314 444.731 119.314 448.193 114.063C451.117 106.139 448.284 102.139 439.693 102.063Z" fill="white"/>
<path fill-rule="evenodd" clip-rule="evenodd" d="M39.6932 105.063C40.7452 104.914 41.7452 105.08 42.6932 105.563C49.6624 111.531 56.3291 117.864 62.6932 124.563C63.6412 125.046 64.6412 125.212 65.6932 125.063C64.9767 108.601 72.3102 103.101 87.6932 108.563C95.3122 113.847 102.645 119.514 109.693 125.563C112.57 126.69 115.57 127.357 118.693 127.563C119.15 127.977 119.484 128.477 119.693 129.063C114.386 134.035 109.053 139.035 103.693 144.063C102.097 141.699 100.931 139.033 100.193 136.063C92.9722 129.702 85.1392 124.202 76.6932 119.563C71.3172 118.597 68.6508 120.931 68.6932 126.563C68.7351 128.53 69.2351 130.364 70.1932 132.063C75.6932 137.563 81.1932 143.063 86.6932 148.563C88.9082 149.607 91.2412 150.273 93.6932 150.563C94.2152 151.124 94.5482 151.791 94.6932 152.563C90.1962 157.893 85.5292 163.06 80.6932 168.063C79.7152 167.586 78.8822 166.92 78.1932 166.063C78.1392 162.702 77.1392 159.702 75.1932 157.063C63.0556 145.926 51.2223 134.426 39.6932 122.563C37.0472 122.066 34.3805 121.899 31.6932 122.063C31.5365 120.69 31.7032 119.356 32.1932 118.063C35.2221 114.001 37.7221 109.668 39.6932 105.063Z" fill="white"/>
<path fill-rule="evenodd" clip-rule="evenodd" d="M487.693 112.063C493.958 114.532 499.625 118.032 504.693 122.563C495.259 131.997 485.759 141.497 476.193 151.063C475.86 153.396 475.526 155.73 475.193 158.063C474.779 158.52 474.279 158.854 473.693 159.063C467.83 154.034 462.496 148.534 457.693 142.563C457.838 141.791 458.171 141.124 458.693 140.563C461.36 140.23 464.026 139.896 466.693 139.563C472.573 133.383 478.74 127.549 485.193 122.063C486.257 118.764 487.091 115.431 487.693 112.063Z" fill="white"/>
<path d="M214.694 130.063C237.278 127.484 248.111 137.484 247.194 160.063C244.18 170.408 237.346 176.574 226.694 178.563C211.967 180.51 202.467 174.343 198.194 160.063C195.788 145.652 201.288 135.652 214.694 130.063ZM222.694 137.563C219.843 136.274 216.842 135.774 213.694 136.063C213.072 137.19 212.238 138.19 211.194 139.063C210.399 152.34 214.899 163.507 224.694 172.563C229.313 174.101 232.481 172.601 234.194 168.063C234.709 156.279 230.875 146.112 222.694 137.563Z" fill="white"/>
<path fill-rule="evenodd" clip-rule="evenodd" d="M156.693 136.063C164.513 135.162 170.68 137.828 175.193 144.063C177.794 154.789 173.961 158.622 163.693 155.563C159.783 149.111 154.116 146.778 146.693 148.563C141.152 152.385 139.319 157.552 141.193 164.063C146.283 175.15 154.116 183.65 164.693 189.563C182.989 192.248 190.989 184.414 188.693 166.063C192.001 165.537 194.167 166.87 195.193 170.063C199.592 182.134 196.759 192.301 186.693 200.563C168.974 212.174 153.141 210.008 139.193 194.063C122.745 167.967 128.578 148.634 156.693 136.063Z" fill="white"/>
<path fill-rule="evenodd" clip-rule="evenodd" d="M512.693 138.063C513.745 137.914 514.745 138.08 515.693 138.563C519.432 142.18 523.265 145.68 527.193 149.063C526.792 151.664 525.292 153.664 522.693 155.063C522.902 155.649 523.236 156.149 523.693 156.563C541.268 160.69 544.435 169.857 533.193 184.063C526.526 190.063 519.86 196.063 513.193 202.063C512.781 204.56 511.615 206.56 509.693 208.063C505.627 202.944 501.793 197.611 498.193 192.063C497.71 191.115 497.544 190.115 497.693 189.063C500.38 189.227 503.047 189.06 505.693 188.563C513.821 182.769 520.988 175.936 527.193 168.063C527.767 162.298 525.1 159.298 519.193 159.063C517.226 159.105 515.392 159.605 513.693 160.563C508.635 164.62 503.301 168.287 497.693 171.563C495.367 174.436 493.2 177.269 491.193 180.063C486.707 175.235 482.541 170.068 478.693 164.563C490.406 159.593 501.24 152.76 511.193 144.063C511.508 141.977 512.008 139.977 512.693 138.063Z" fill="white"/>
<path fill-rule="evenodd" clip-rule="evenodd" d="M30.6932 187.063C33.3796 188.554 36.3796 189.22 39.6932 189.063C41.8897 189.058 43.8897 188.725 45.6932 188.063C55.9846 184.914 60.4846 177.914 59.1932 167.063C57.24 164.308 56.0733 161.308 55.6932 158.063C62.4643 159.325 66.9643 163.325 69.1932 170.063C70.5302 189.216 62.0299 201.716 43.6932 207.563C21.2755 208.61 6.77549 198.443 0.193191 177.063C-1.20251 161.021 4.96419 148.854 18.6932 140.563C26.147 137.935 32.3137 139.769 37.1932 146.063C39.9269 154.668 36.7603 158.501 27.6932 157.563C13.6816 150.311 7.18159 154.478 8.19319 170.063C13.5355 178.495 21.0355 184.161 30.6932 187.063Z" fill="white"/>
<path d="M344.693 134.063C353.577 133.007 361.577 135.174 368.693 140.563C374.026 146.563 374.026 152.563 368.693 158.563C367.36 159.23 366.026 159.896 364.693 160.563C356.918 161.431 349.251 160.931 341.693 159.063C341.681 169.884 347.015 174.384 357.693 172.563C360.037 171.726 362.037 170.392 363.693 168.563C365.327 168.069 366.994 167.903 368.693 168.063C367.092 175.173 362.758 180.007 355.693 182.563C341.405 184.674 332.238 178.84 328.193 165.063C326.354 150.737 331.854 140.403 344.693 134.063ZM361.193 150.063C363.765 142.454 360.931 139.121 352.693 140.063C347.223 143.513 344.557 148.346 344.693 154.563C351.119 156.213 356.619 154.713 361.193 150.063Z" fill="white"/>
<path d="M390.693 159.063C401.734 158.348 410.567 162.348 417.193 171.063C421.284 184.976 416.117 190.809 401.693 188.563C396.487 186.883 391.487 184.716 386.693 182.063C383.287 188.321 384.621 193.488 390.693 197.563C396.12 199.739 401.286 199.239 406.193 196.063C407.815 196.517 408.981 197.517 409.693 199.063C397.905 211.385 386.405 211.051 375.193 198.063C368.12 180.209 373.286 167.209 390.693 159.063ZM409.193 176.063C410.014 168.396 406.514 165.396 398.693 167.063C395.209 169.715 392.209 172.881 389.693 176.563C390.637 178.04 391.97 179.04 393.693 179.563C397.693 180.23 401.693 180.23 405.693 179.563L409.193 176.063Z" fill="white"/>
</svg>
